<?xml version="1.0" encoding="UTF-8"?>
<!DOCTYPE svg PUBLIC "-//W3C//DTD SVG 1.1//EN" "http://www.w3.org/Graphics/SVG/1.1/DTD/svg11.dtd">
<svg xmlns="http://www.w3.org/2000/svg" version="1.1" width="624px" height="668px" style="shape-rendering:geometricPrecision; text-rendering:geometricPrecision; image-rendering:optimizeQuality; fill-rule:evenodd; clip-rule:evenodd" xmlns:xlink="http://www.w3.org/1999/xlink">
<g><path style="opacity:1" fill="#f9f9f9" d="M -0.5,-0.5 C 207.5,-0.5 415.5,-0.5 623.5,-0.5C 623.5,222.167 623.5,444.833 623.5,667.5C 415.5,667.5 207.5,667.5 -0.5,667.5C -0.5,444.833 -0.5,222.167 -0.5,-0.5 Z"/></g>
<g><path style="opacity:1" fill="#131313" d="M 246.5,511.5 C 245.076,513.515 244.41,515.848 244.5,518.5C 244.617,526.853 245.117,535.187 246,543.5C 248.028,552.475 249.862,561.475 251.5,570.5C 249.224,568.669 247.391,566.336 246,563.5C 239.254,551.599 232.754,539.599 226.5,527.5C 225.356,509.154 225.356,490.821 226.5,472.5C 227.449,468.343 228.116,464.01 228.5,459.5C 233.043,433.843 229.876,409.176 219,385.5C 211.094,369.351 202.428,353.684 193,338.5C 183.078,320.67 175.412,302.004 170,282.5C 169.172,278.534 168.672,274.534 168.5,270.5C 161.709,271.601 156.043,269.601 151.5,264.5C 143.168,296.652 140.001,329.318 142,362.5C 144.378,377.803 148.878,392.47 155.5,406.5C 155.333,406.833 155.167,407.167 155,407.5C 147.952,401.063 140.452,395.229 132.5,390C 129.72,388.087 128.053,385.587 127.5,382.5C 121.337,336.456 124.837,291.123 138,246.5C 141.892,240.043 147.058,238.876 153.5,243C 156.017,245.349 158.35,247.849 160.5,250.5C 168.276,220.604 182.609,194.437 203.5,172C 212.326,170.327 217.826,173.827 220,182.5C 221.113,184.329 222.613,185.163 224.5,185C 234.431,173.738 243.598,161.905 252,149.5C 256.8,143.698 261.967,138.198 267.5,133C 271.118,132.034 274.451,132.534 277.5,134.5C 279.813,138.72 281.98,143.053 284,147.5C 295.943,141.115 307.109,133.615 317.5,125C 325.558,123.871 330.225,127.371 331.5,135.5C 347.446,127.043 362.446,117.21 376.5,106C 386.285,103.62 391.285,107.453 391.5,117.5C 423.27,104.604 448.77,83.6041 468,54.5C 471.547,46.5652 475.714,39.0652 480.5,32C 486.252,29.6212 490.752,31.1212 494,36.5C 497.469,62.8578 497.136,89.1912 493,115.5C 490.457,128.279 487.624,140.946 484.5,153.5C 498.118,149.956 504.118,155.123 502.5,169C 502.705,176.302 501.872,183.468 500,190.5C 496.055,206.497 491.222,222.163 485.5,237.5C 492.016,236.237 497.516,237.904 502,242.5C 501.001,266.998 493.501,289.331 479.5,309.5C 490.083,308.58 494.583,313.246 493,323.5C 484.283,350.799 468.783,373.299 446.5,391C 416.453,412.249 383.12,425.916 346.5,432C 314.311,439.892 286.811,455.725 264,479.5C 256.343,489.146 250.509,499.813 246.5,511.5 Z"/></g>
<g><path style="opacity:1" fill="#f6f6f6" d="M 472.5,128.5 C 473.097,128.735 473.43,129.235 473.5,130C 470.863,139.575 468.03,149.075 465,158.5C 463.419,164.062 464.919,168.562 469.5,172C 474.838,172.315 480.172,172.148 485.5,171.5C 485.451,178.764 483.618,185.431 480,191.5C 461.702,210.742 439.869,224.576 414.5,233C 390.686,239.534 367.02,246.2 343.5,253C 352.196,243.969 361.196,235.303 370.5,227C 388.553,213.28 406.887,199.947 425.5,187C 446.218,171.46 461.885,151.96 472.5,128.5 Z"/></g>
<g><path style="opacity:1" fill="#f7f7f7" d="M 315.5,147.5 C 317.247,149.428 318.913,151.594 320.5,154C 322.221,154.739 323.887,155.573 325.5,156.5C 319.972,167.251 316.139,178.584 314,190.5C 312.001,211.443 311.001,232.443 311,253.5C 310.662,258.547 309.995,263.547 309,268.5C 296.594,286.966 284.927,305.966 274,325.5C 273.517,319.086 272.517,312.752 271,306.5C 263.721,282.329 257.054,257.996 251,233.5C 246.965,216.216 246.632,198.883 250,181.5C 255.833,173.667 261.667,165.833 267.5,158C 268.167,157.333 268.833,157.333 269.5,158C 272.273,164.885 277.273,167.218 284.5,165C 295.805,160.686 306.138,154.853 315.5,147.5 Z"/></g>
<g><path style="opacity:1" fill="#f6f6f7" d="M 474.5,75.5 C 469.584,115.15 451.25,147.317 419.5,172C 397.968,186.6 376.968,201.933 356.5,218C 345.333,227.833 334.833,238.333 325,249.5C 324.144,232.471 324.477,215.471 326,198.5C 328.28,179.817 334.78,162.817 345.5,147.5C 355.505,141.833 365.172,135.666 374.5,129C 375.448,128.517 376.448,128.351 377.5,128.5C 378.201,133.868 381.201,136.868 386.5,137.5C 396.047,135.483 405.047,131.983 413.5,127C 437.643,114.358 457.976,97.1917 474.5,75.5 Z"/></g>
<g><path style="opacity:1" fill="#f7f7f7" d="M 233.5,200.5 C 234.167,204.833 234.833,209.167 235.5,213.5C 236.205,224.268 237.705,234.935 240,245.5C 246.335,267.838 252.668,290.171 259,312.5C 261.795,326.447 262.128,340.447 260,354.5C 252.468,371.887 245.802,389.553 240,407.5C 237.053,394.993 232.72,382.993 227,371.5C 218.333,356.167 209.667,340.833 201,325.5C 190.642,307.074 183.809,287.407 180.5,266.5C 180.309,258.799 180.642,251.132 181.5,243.5C 186.766,225.297 195.433,208.964 207.5,194.5C 210.436,199.273 214.436,202.773 219.5,205C 221.5,205.667 223.5,205.667 225.5,205C 228.312,203.672 230.978,202.172 233.5,200.5 Z"/></g>
<g><path style="opacity:1" fill="#626262" d="M 233.5,200.5 C 233.56,199.957 233.893,199.624 234.5,199.5C 235.493,204.12 235.827,208.786 235.5,213.5C 234.833,209.167 234.167,204.833 233.5,200.5 Z"/></g>
<g><path style="opacity:1" fill="#f7f7f7" d="M 473.5,215.5 C 474.239,215.369 474.906,215.536 475.5,216C 471.671,224.816 467.837,233.65 464,242.5C 462.534,247.735 464.034,251.901 468.5,255C 473.489,255.499 478.489,255.666 483.5,255.5C 482.857,260.601 481.691,265.601 480,270.5C 469.612,284.22 456.779,295.054 441.5,303C 430.623,308.772 419.29,313.438 407.5,317C 385.936,322.409 364.27,327.409 342.5,332C 318.086,337.875 296.086,348.541 276.5,364C 275.668,364.688 275.002,364.521 274.5,363.5C 286.76,335.79 301.26,309.456 318,284.5C 328.344,275.24 340.178,268.406 353.5,264C 371.702,258.533 390.035,253.533 408.5,249C 424.937,244.079 440.604,237.412 455.5,229C 461.967,225.021 467.967,220.521 473.5,215.5 Z"/></g>
<g><path style="opacity:1" fill="#b2b1b2" d="M 181.5,243.5 C 180.642,251.132 180.309,258.799 180.5,266.5C 179.346,260.013 179.179,253.346 180,246.5C 180.232,245.263 180.732,244.263 181.5,243.5 Z"/></g>
<g><path style="opacity:1" fill="#f6f7f6" d="M 228.5,459.5 C 227.732,460.263 227.232,461.263 227,462.5C 226.502,465.817 226.335,469.15 226.5,472.5C 225.356,490.821 225.356,509.154 226.5,527.5C 225.833,526.833 225.167,526.167 224.5,525.5C 204.862,485.359 179.528,449.192 148.5,417C 138.969,408.749 128.969,401.249 118.5,394.5C 119.583,394.461 120.583,394.127 121.5,393.5C 122.386,394.325 122.719,395.325 122.5,396.5C 123.552,396.649 124.552,396.483 125.5,396C 124.978,393.711 125.645,391.544 127.5,389.5C 126.328,387.177 126.328,384.844 127.5,382.5C 128.053,385.587 129.72,388.087 132.5,390C 140.452,395.229 147.952,401.063 155,407.5C 155.167,407.167 155.333,406.833 155.5,406.5C 148.878,392.47 144.378,377.803 142,362.5C 140.001,329.318 143.168,296.652 151.5,264.5C 156.043,269.601 161.709,271.601 168.5,270.5C 168.672,274.534 169.172,278.534 170,282.5C 175.412,302.004 183.078,320.67 193,338.5C 202.428,353.684 211.094,369.351 219,385.5C 229.876,409.176 233.043,433.843 228.5,459.5 Z"/></g>
<g><path style="opacity:1" fill="#000000" d="M 124.5,287.5 C 126.76,288.238 126.927,289.238 125,290.5C 123.272,289.648 123.105,288.648 124.5,287.5 Z"/></g>
<g><path style="opacity:1" fill="#f7f7f7" d="M 462.5,326.5 C 465.833,327.167 469.167,327.833 472.5,328.5C 455.65,366.514 427.65,392.681 388.5,407C 365.845,413.331 343.178,419.664 320.5,426C 289.297,436.884 264.13,455.717 245,482.5C 246.345,454.104 251.678,426.437 261,399.5C 267.407,388.425 275.907,379.258 286.5,372C 304.521,359.542 324.187,350.542 345.5,345C 372.599,340.04 399.266,333.373 425.5,325C 438.235,319.966 450.235,313.966 461.5,307C 456.355,311.598 455.188,317.098 458,323.5C 459.615,324.386 461.115,325.386 462.5,326.5 Z"/></g>
<g><path style="opacity:1" fill="#8a8a8a" d="M 462.5,326.5 C 466.226,326.177 469.893,326.511 473.5,327.5C 473.376,328.107 473.043,328.44 472.5,328.5C 469.167,327.833 465.833,327.167 462.5,326.5 Z"/></g>
<g><path style="opacity:1" fill="#075318" d="M 198.5,553.5 C 199.117,553.611 199.617,553.944 200,554.5C 203.674,552.232 207.507,550.899 211.5,550.5C 210.511,549.532 209.844,548.365 209.5,547C 210.252,544.846 210.419,542.68 210,540.5C 209.189,541.96 208.355,542.293 207.5,541.5C 208.348,539.591 208.682,537.591 208.5,535.5C 210.39,535.297 211.89,535.963 213,537.5C 215.372,535.352 218.206,534.018 221.5,533.5C 222.624,532.086 223.624,530.586 224.5,529C 223.209,527.708 223.209,526.542 224.5,525.5C 225.167,526.167 225.833,526.833 226.5,527.5C 232.754,539.599 239.254,551.599 246,563.5C 247.391,566.336 249.224,568.669 251.5,570.5C 257.44,586.533 266.107,601.033 277.5,614C 284.308,617.474 290.975,617.14 297.5,613C 302.611,607.277 307.111,601.11 311,594.5C 328.158,561.514 345.825,528.848 364,496.5C 376.772,475.954 390.772,456.287 406,437.5C 424.038,417.115 445.204,400.949 469.5,389C 477.234,387.398 480.067,390.231 478,397.5C 447.505,432.999 420.505,470.999 397,511.5C 378.333,549.5 359.667,587.5 341,625.5C 335.305,634.867 328.472,643.367 320.5,651C 303.917,662.798 285.917,665.465 266.5,659C 257.231,654.74 249.398,648.573 243,640.5C 224.986,613.139 210.152,584.139 198.5,553.5 Z"/></g>
<g><path style="opacity:1" fill="#095719" d="M 118.5,394.5 C 128.969,401.249 138.969,408.749 148.5,417C 179.528,449.192 204.862,485.359 224.5,525.5C 223.209,526.542 223.209,527.708 224.5,529C 223.624,530.586 222.624,532.086 221.5,533.5C 218.206,534.018 215.372,535.352 213,537.5C 211.89,535.963 210.39,535.297 208.5,535.5C 208.682,537.591 208.348,539.591 207.5,541.5C 208.355,542.293 209.189,541.96 210,540.5C 210.419,542.68 210.252,544.846 209.5,547C 209.844,548.365 210.511,549.532 211.5,550.5C 207.507,550.899 203.674,552.232 200,554.5C 199.617,553.944 199.117,553.611 198.5,553.5C 171.685,497.837 138.852,446.171 100,398.5C 96.5694,390.6 99.0694,387.433 107.5,389C 110.91,391.372 114.577,393.205 118.5,394.5 Z"/></g>
<g><path style="opacity:1" fill="#919291" d="M 228.5,459.5 C 228.116,464.01 227.449,468.343 226.5,472.5C 226.335,469.15 226.502,465.817 227,462.5C 227.232,461.263 227.732,460.263 228.5,459.5 Z"/></g>
<g><path style="opacity:1" fill="#8f8f90" d="M 246.5,511.5 C 246.59,514.152 245.924,516.485 244.5,518.5C 244.41,515.848 245.076,513.515 246.5,511.5 Z"/></g>
</svg>
