<?xml version="1.0" encoding="UTF-8"?>
<!DOCTYPE svg PUBLIC "-//W3C//DTD SVG 1.1//EN" "http://www.w3.org/Graphics/SVG/1.1/DTD/svg11.dtd">
<svg xmlns="http://www.w3.org/2000/svg" version="1.1" width="1254px" height="1254px" style="shape-rendering:geometricPrecision; text-rendering:geometricPrecision; image-rendering:optimizeQuality; fill-rule:evenodd; clip-rule:evenodd" xmlns:xlink="http://www.w3.org/1999/xlink">
<g><path style="opacity:1" fill="#f9f9f9" d="M -0.5,-0.5 C 417.5,-0.5 835.5,-0.5 1253.5,-0.5C 1253.5,417.5 1253.5,835.5 1253.5,1253.5C 835.5,1253.5 417.5,1253.5 -0.5,1253.5C -0.5,835.5 -0.5,417.5 -0.5,-0.5 Z"/></g>
<g><path style="opacity:1" fill="#515051" d="M 600.5,289.5 C 597.43,289.368 594.43,289.701 591.5,290.5C 591.611,289.883 591.944,289.383 592.5,289C 595.367,288.199 598.034,288.366 600.5,289.5 Z"/></g>
<g><path style="opacity:1" fill="#767676" d="M 810.5,392.5 C 811.209,393.404 812.209,393.737 813.5,393.5C 812.292,394.782 810.958,394.782 809.5,393.5C 809.624,392.893 809.957,392.56 810.5,392.5 Z"/></g>
<g><path style="opacity:1" fill="#555656" d="M 453.5,449.5 C 453.884,453.489 453.217,457.155 451.5,460.5C 451.808,456.64 452.475,452.974 453.5,449.5 Z"/></g>
<g><path style="opacity:1" fill="#075318" d="M 580.5,808.5 C 586.357,803.184 592.691,797.517 599.5,791.5C 600.23,789.659 600.897,787.825 601.5,786C 605.945,784.611 609.945,782.445 613.5,779.5C 615.493,781.499 617.827,782.999 620.5,784C 618.893,785.049 618.227,786.549 618.5,788.5C 621.026,788.313 622.693,786.98 623.5,784.5C 621.134,781.788 619.801,778.955 619.5,776C 619.833,775.5 620.167,775 620.5,774.5C 621.611,775.611 622.945,776.278 624.5,776.5C 627.363,775.136 629.363,772.97 630.5,770C 632.081,769.293 633.581,768.46 635,767.5C 635.333,767.833 635.667,768.167 636,768.5C 638.298,764.295 637.798,760.462 634.5,757C 636.352,753.945 637.352,754.445 637.5,758.5C 638.833,758.5 640.167,758.5 641.5,758.5C 641.351,757.448 641.517,756.448 642,755.5C 643.011,756.337 644.178,756.67 645.5,756.5C 645.5,755.5 645.5,754.5 645.5,753.5C 650.463,753.898 651.463,752.231 648.5,748.5C 649.82,745.943 648.987,744.276 646,743.5C 644.667,744.167 643.333,744.833 642,745.5C 642.135,743.575 642.302,741.575 642.5,739.5C 661.442,699.604 682.942,661.271 707,624.5C 726.544,595.289 751.044,571.122 780.5,552C 786.073,548.794 791.906,546.294 798,544.5C 801.471,544.472 803.638,546.138 804.5,549.5C 803.863,552.107 802.696,554.44 801,556.5C 767.655,594.525 738.988,635.858 715,680.5C 699.667,712.5 684.333,744.5 669,776.5C 662.315,787.522 654.482,797.689 645.5,807C 628.917,818.798 610.917,821.465 591.5,815C 587.476,813.326 583.809,811.159 580.5,808.5 Z"/></g>
<g><path style="opacity:1" fill="#131313" d="M 810.5,392.5 C 809.957,392.56 809.624,392.893 809.5,393.5C 810.958,394.782 812.292,394.782 813.5,393.5C 821.58,392.018 826.247,395.185 827.5,403C 825.066,425.805 817.4,446.639 804.5,465.5C 815.083,464.58 819.583,469.246 818,479.5C 809.283,506.799 793.783,529.299 771.5,547C 741.453,568.249 708.12,581.916 671.5,588C 639.311,595.892 611.811,611.725 589,635.5C 581.343,645.146 575.509,655.813 571.5,667.5C 570.076,669.515 569.41,671.848 569.5,674.5C 569.617,682.853 570.117,691.187 571,699.5C 573.028,708.475 574.862,717.475 576.5,726.5C 574.224,724.669 572.391,722.336 571,719.5C 564.254,707.599 557.754,695.599 551.5,683.5C 550.356,665.154 550.356,646.821 551.5,628.5C 552.449,624.343 553.116,620.01 553.5,615.5C 555.877,601.532 556.044,587.532 554,573.5C 553.594,570.258 552.761,567.258 551.5,564.5C 551.59,561.848 550.924,559.515 549.5,557.5C 541.653,535.139 531.153,514.139 518,494.5C 508.078,476.67 500.412,458.004 495,438.5C 494.172,434.534 493.672,430.534 493.5,426.5C 486.709,427.601 481.043,425.601 476.5,420.5C 468.168,452.652 465.001,485.318 467,518.5C 467.82,525.269 469.154,531.935 471,538.5C 474.35,546.835 477.35,555.168 480,563.5C 471.623,556.121 462.956,549.121 454,542.5C 452.178,535.26 450.845,527.927 450,520.5C 449.057,500.448 449.557,480.448 451.5,460.5C 453.217,457.155 453.884,453.489 453.5,449.5C 455.403,432.816 458.903,416.483 464,400.5C 468.349,395.805 473.182,395.305 478.5,399C 481.017,401.349 483.35,403.849 485.5,406.5C 493.276,376.604 507.609,350.437 528.5,328C 537.326,326.327 542.826,329.827 545,338.5C 546.113,340.329 547.613,341.163 549.5,341C 559.431,329.738 568.598,317.905 577,305.5C 581.337,299.997 586.17,294.997 591.5,290.5C 594.43,289.701 597.43,289.368 600.5,289.5C 602.451,290.282 603.951,291.616 605,293.5C 605.792,297.079 607.125,300.412 609,303.5C 620.943,297.115 632.109,289.615 642.5,281C 650.558,279.871 655.225,283.371 656.5,291.5C 672.446,283.043 687.446,273.21 701.5,262C 705.295,261.163 708.961,261.496 712.5,263C 714.633,266.632 716.299,270.465 717.5,274.5C 748.667,260.16 773.833,238.827 793,210.5C 796.547,202.565 800.714,195.065 805.5,188C 811.252,185.621 815.752,187.121 819,192.5C 822.469,218.858 822.136,245.191 818,271.5C 815.457,284.279 812.624,296.946 809.5,309.5C 823.118,305.956 829.118,311.123 827.5,325C 826.935,334.95 825.435,344.784 823,354.5C 819.521,367.437 815.354,380.103 810.5,392.5 Z"/></g>
<g><path style="opacity:1" fill="#8a8a8a" d="M 787.5,482.5 C 791.226,482.177 794.893,482.511 798.5,483.5C 798.376,484.107 798.043,484.44 797.5,484.5C 794.167,483.833 790.833,483.167 787.5,482.5 Z"/></g>
<g><path style="opacity:1" fill="#f7f7f7" d="M 787.5,482.5 C 790.833,483.167 794.167,483.833 797.5,484.5C 780.65,522.514 752.65,548.681 713.5,563C 690.845,569.331 668.178,575.664 645.5,582C 614.265,592.757 589.265,611.59 570.5,638.5C 569.539,636.735 569.205,634.735 569.5,632.5C 571.996,606.191 577.496,580.525 586,555.5C 592.407,544.425 600.907,535.258 611.5,528C 629.521,515.542 649.187,506.542 670.5,501C 697.599,496.04 724.266,489.373 750.5,481C 763.235,475.966 775.235,469.966 786.5,463C 781.355,467.598 780.188,473.098 783,479.5C 784.615,480.386 786.115,481.386 787.5,482.5 Z"/></g>
<g><path style="opacity:1" fill="#b2b1b2" d="M 506.5,399.5 C 505.642,407.132 505.309,414.799 505.5,422.5C 504.346,416.013 504.179,409.346 505,402.5C 505.232,401.263 505.732,400.263 506.5,399.5 Z"/></g>
<g><path style="opacity:1" fill="#5c5b5c" d="M 573.5,376.5 C 574.525,379.974 575.192,383.64 575.5,387.5C 573.783,384.155 573.116,380.489 573.5,376.5 Z"/></g>
<g><path style="opacity:1" fill="#f7f7f7" d="M 798.5,371.5 C 799.239,371.369 799.906,371.536 800.5,372C 796.671,380.816 792.837,389.65 789,398.5C 787.534,403.735 789.034,407.901 793.5,411C 798.489,411.499 803.489,411.666 808.5,411.5C 807.857,416.601 806.691,421.601 805,426.5C 794.612,440.22 781.779,451.054 766.5,459C 755.623,464.772 744.29,469.438 732.5,473C 710.936,478.409 689.27,483.409 667.5,488C 643.086,493.875 621.086,504.541 601.5,520C 600.668,520.688 600.002,520.521 599.5,519.5C 611.76,491.79 626.26,465.456 643,440.5C 653.344,431.24 665.178,424.406 678.5,420C 696.702,414.533 715.035,409.533 733.5,405C 749.937,400.079 765.604,393.412 780.5,385C 786.967,381.021 792.967,376.521 798.5,371.5 Z"/></g>
<g><path style="opacity:1" fill="#626262" d="M 558.5,356.5 C 558.56,355.957 558.893,355.624 559.5,355.5C 560.493,360.12 560.827,364.786 560.5,369.5C 559.833,365.167 559.167,360.833 558.5,356.5 Z"/></g>
<g><path style="opacity:1" fill="#f7f7f7" d="M 558.5,356.5 C 559.167,360.833 559.833,365.167 560.5,369.5C 561.205,380.268 562.705,390.935 565,401.5C 571.335,423.838 577.668,446.171 584,468.5C 586.795,482.447 587.128,496.447 585,510.5C 577.468,527.887 570.802,545.553 565,563.5C 562.053,550.993 557.72,538.993 552,527.5C 543.333,512.167 534.667,496.833 526,481.5C 515.642,463.074 508.809,443.407 505.5,422.5C 505.309,414.799 505.642,407.132 506.5,399.5C 511.766,381.297 520.433,364.964 532.5,350.5C 535.436,355.273 539.436,358.773 544.5,361C 546.5,361.667 548.5,361.667 550.5,361C 553.312,359.672 555.978,358.172 558.5,356.5 Z"/></g>
<g><path style="opacity:1" fill="#f6f6f6" d="M 797.5,284.5 C 798.097,284.735 798.43,285.235 798.5,286C 795.863,295.575 793.03,305.075 790,314.5C 788.419,320.062 789.919,324.562 794.5,328C 799.838,328.315 805.172,328.148 810.5,327.5C 810.451,334.764 808.618,341.431 805,347.5C 786.702,366.742 764.869,380.576 739.5,389C 715.686,395.534 692.02,402.2 668.5,409C 677.196,399.969 686.196,391.303 695.5,383C 713.553,369.28 731.887,355.947 750.5,343C 771.218,327.46 786.885,307.96 797.5,284.5 Z"/></g>
<g><path style="opacity:1" fill="#f7f7f7" d="M 575.5,387.5 C 575.192,383.64 574.525,379.974 573.5,376.5C 571.856,363.418 572.356,350.418 575,337.5C 580.833,329.667 586.667,321.833 592.5,314C 593.167,313.333 593.833,313.333 594.5,314C 597.273,320.885 602.273,323.218 609.5,321C 620.904,316.465 631.571,310.632 641.5,303.5C 642.833,308.167 645.833,311.167 650.5,312.5C 644.972,323.251 641.139,334.584 639,346.5C 637.001,367.443 636.001,388.443 636,409.5C 635.662,414.547 634.995,419.547 634,424.5C 621.594,442.966 609.927,461.966 599,481.5C 598.517,475.086 597.517,468.752 596,462.5C 588.445,437.674 581.612,412.674 575.5,387.5 Z"/></g>
<g><path style="opacity:1" fill="#f6f6f7" d="M 799.5,231.5 C 794.584,271.15 776.25,303.317 744.5,328C 722.968,342.6 701.968,357.933 681.5,374C 670.333,383.833 659.833,394.333 650,405.5C 649.144,388.471 649.477,371.471 651,354.5C 653.28,335.817 659.78,318.817 670.5,303.5C 680.505,297.833 690.172,291.666 699.5,285C 700.448,284.517 701.448,284.351 702.5,284.5C 703.201,289.868 706.201,292.868 711.5,293.5C 721.047,291.483 730.047,287.983 738.5,283C 762.643,270.358 782.976,253.192 799.5,231.5 Z"/></g>
<g><path style="opacity:1" fill="#a5a5a5" d="M 549.5,557.5 C 550.924,559.515 551.59,561.848 551.5,564.5C 550.076,562.485 549.41,560.152 549.5,557.5 Z"/></g>
<g><path style="opacity:1" fill="#919291" d="M 553.5,615.5 C 553.116,620.01 552.449,624.343 551.5,628.5C 551.335,625.15 551.502,621.817 552,618.5C 552.232,617.263 552.732,616.263 553.5,615.5 Z"/></g>
<g><path style="opacity:1" fill="#555656" d="M 569.5,632.5 C 569.205,634.735 569.539,636.735 570.5,638.5C 570.631,639.376 570.298,640.043 569.5,640.5C 568.2,637.691 568.2,635.024 569.5,632.5 Z"/></g>
<g><path style="opacity:1" fill="#8f8f90" d="M 571.5,667.5 C 571.59,670.152 570.924,672.485 569.5,674.5C 569.41,671.848 570.076,669.515 571.5,667.5 Z"/></g>
<g><path style="opacity:1" fill="#075518" d="M 551.5,683.5 C 557.754,695.599 564.254,707.599 571,719.5C 572.391,722.336 574.224,724.669 576.5,726.5C 581.461,740.083 588.294,752.75 597,764.5C 604.14,773.395 612.64,774.895 622.5,769C 630.303,759.879 636.97,750.046 642.5,739.5C 642.302,741.575 642.135,743.575 642,745.5C 643.333,744.833 644.667,744.167 646,743.5C 648.987,744.276 649.82,745.943 648.5,748.5C 651.463,752.231 650.463,753.898 645.5,753.5C 645.5,754.5 645.5,755.5 645.5,756.5C 644.178,756.67 643.011,756.337 642,755.5C 641.517,756.448 641.351,757.448 641.5,758.5C 640.167,758.5 638.833,758.5 637.5,758.5C 637.352,754.445 636.352,753.945 634.5,757C 637.798,760.462 638.298,764.295 636,768.5C 635.667,768.167 635.333,767.833 635,767.5C 633.581,768.46 632.081,769.293 630.5,770C 629.363,772.97 627.363,775.136 624.5,776.5C 622.945,776.278 621.611,775.611 620.5,774.5C 620.167,775 619.833,775.5 619.5,776C 619.801,778.955 621.134,781.788 623.5,784.5C 622.693,786.98 621.026,788.313 618.5,788.5C 618.227,786.549 618.893,785.049 620.5,784C 617.827,782.999 615.493,781.499 613.5,779.5C 609.945,782.445 605.945,784.611 601.5,786C 600.897,787.825 600.23,789.659 599.5,791.5C 592.691,797.517 586.357,803.184 580.5,808.5C 568.95,797.778 559.45,785.445 552,771.5C 541.765,751.033 532.098,730.367 523,709.5C 496.25,652.948 463.25,600.615 424,552.5C 422.676,545.495 425.51,542.995 432.5,545C 452.548,554.706 470.048,567.873 485,584.5C 510.659,615.151 532.826,648.151 551.5,683.5 Z"/></g>
<g><path style="opacity:1" fill="#131313" d="M 448.5,833.5 C 469.841,831.973 476.674,840.973 469,860.5C 458.317,867.979 448.651,866.979 440,857.5C 435.847,846.841 438.68,838.841 448.5,833.5 Z"/></g>
<g><path style="opacity:1" fill="#121212" d="M 245.5,840.5 C 253.323,839.344 261.323,839.177 269.5,840C 276.627,841.791 282.794,845.291 288,850.5C 306.684,887.201 324.85,924.201 342.5,961.5C 360.214,921.365 377.548,881.032 394.5,840.5C 404.483,839.334 414.483,839.168 424.5,840C 402.601,890.524 380.601,941.024 358.5,991.5C 350.855,992.665 343.188,992.831 335.5,992C 329.546,990.046 324.712,986.546 321,981.5C 301.667,941.5 282.333,901.5 263,861.5C 258.101,853.69 252.268,846.69 245.5,840.5 Z"/></g>
<g><path style="opacity:1" fill="#131313" d="M 544.5,922.5 C 550.603,924.136 556.936,925.136 563.5,925.5C 570.669,927.245 577.669,929.412 584.5,932C 599.311,939.799 604.811,951.965 601,968.5C 597.121,980.711 588.955,988.544 576.5,992C 551.437,997.664 526.771,996.331 502.5,988C 500.714,987.215 499.214,986.049 498,984.5C 497.169,976.812 497.335,969.145 498.5,961.5C 520.922,973.695 544.589,976.862 569.5,971C 577.909,965.402 578.576,959.068 571.5,952C 568.5,951 565.5,950 562.5,949C 550.413,947.097 538.413,944.763 526.5,942C 514.353,940.349 504.853,934.516 498,924.5C 496.722,921.279 495.889,917.946 495.5,914.5C 495.392,909.13 495.725,903.797 496.5,898.5C 502.023,886.497 511.357,878.997 524.5,876C 538.119,874.427 551.786,874.094 565.5,875C 573.374,875.743 581.041,877.41 588.5,880C 590,880.833 591.167,882 592,883.5C 592.831,890.524 592.664,897.524 591.5,904.5C 573.607,896.957 554.94,894.124 535.5,896C 529.673,897.162 524.84,899.996 521,904.5C 519.639,911.277 522.139,916.11 528.5,919C 533.804,920.493 539.138,921.659 544.5,922.5 Z"/></g>
<g><path style="opacity:1" fill="#131313" d="M 985.5,883.5 C 985.824,890.354 985.491,897.021 984.5,903.5C 977.146,900.411 969.479,898.411 961.5,897.5C 955.581,895.955 949.414,895.289 943,895.5C 938.5,895.667 934,895.833 929.5,896C 928.263,896.232 927.263,896.732 926.5,897.5C 914.657,900.554 912.324,907.054 919.5,917C 921.65,918.411 923.984,919.245 926.5,919.5C 928.515,920.924 930.848,921.59 933.5,921.5C 948.973,923.301 963.973,926.801 978.5,932C 992.993,939.494 998.493,951.327 995,967.5C 991.526,980.307 983.36,988.474 970.5,992C 956.65,995.402 942.65,996.236 928.5,994.5C 924.081,993.028 919.414,992.362 914.5,992.5C 906.242,991.896 898.742,989.229 892,984.5C 891.169,976.812 891.335,969.145 892.5,961.5C 901.694,966.267 911.361,969.6 921.5,971.5C 927.93,973.025 934.596,973.692 941.5,973.5C 946.346,973.499 951.012,973.166 955.5,972.5C 967.584,971.94 972.084,965.94 969,954.5C 966.707,952.628 964.207,951.128 961.5,950C 945.113,946.77 928.779,943.437 912.5,940C 889.783,930.353 883.617,914.186 894,891.5C 902.078,882.21 912.245,876.71 924.5,875C 936.5,874.333 948.5,874.333 960.5,875C 968.033,875.811 975.366,877.477 982.5,880C 983.71,881.039 984.71,882.206 985.5,883.5 Z"/></g>
<g><path style="opacity:1" fill="#131313" d="M 693.5,897.5 C 690.686,896.835 687.686,896.502 684.5,896.5C 680.203,896.278 676.203,896.945 672.5,898.5C 658.681,901.484 649.848,909.818 646,923.5C 641.006,948.362 650.506,964.528 674.5,972C 692.727,975.081 708.227,970.248 721,957.5C 727.289,961.954 733.122,966.954 738.5,972.5C 727.955,985.441 714.288,992.607 697.5,994C 670.952,998.916 648.452,991.749 630,972.5C 618.39,956.185 614.723,938.185 619,918.5C 629.908,889.019 651.241,874.019 683,873.5C 700.491,873.161 716.324,877.994 730.5,888C 733.35,890.682 736.016,893.516 738.5,896.5C 733.342,901.49 728.009,906.323 722.5,911C 721.5,911.667 720.5,911.667 719.5,911C 712.629,903.064 703.962,898.564 693.5,897.5 Z"/></g>
<g><path style="opacity:1" fill="#131313" d="M 787.5,924.5 C 805.483,923.616 823.483,923.283 841.5,923.5C 841.802,920.941 841.468,918.607 840.5,916.5C 838.201,905.037 831.201,898.537 819.5,897C 801.317,894.204 784.317,897.371 768.5,906.5C 765.839,899.842 763.172,893.175 760.5,886.5C 780.412,875.286 801.745,871.453 824.5,875C 847.357,877.199 861.524,889.365 867,911.5C 867.5,938.498 867.667,965.498 867.5,992.5C 859.5,992.5 851.5,992.5 843.5,992.5C 843.666,987.821 843.499,983.155 843,978.5C 837.482,985.683 830.315,990.516 821.5,993C 806.719,996.66 792.052,996.326 777.5,992C 760.357,984.885 752.524,972.052 754,953.5C 758.129,935.88 769.295,926.214 787.5,924.5 Z"/></g>
<g><path style="opacity:1" fill="#161615" d="M 441.5,877.5 C 450.833,877.5 460.167,877.5 469.5,877.5C 469.5,915.833 469.5,954.167 469.5,992.5C 460.167,992.5 450.833,992.5 441.5,992.5C 441.5,954.167 441.5,915.833 441.5,877.5 Z"/></g>
<g><path style="opacity:1" fill="#bdbdbd" d="M 961.5,897.5 C 949.826,896.219 938.159,896.219 926.5,897.5C 927.263,896.732 928.263,896.232 929.5,896C 934,895.833 938.5,895.667 943,895.5C 949.414,895.289 955.581,895.955 961.5,897.5 Z"/></g>
<g><path style="opacity:1" fill="#424242" d="M 985.5,883.5 C 986.819,890.344 986.819,897.344 985.5,904.5C 984.893,904.376 984.56,904.043 984.5,903.5C 985.491,897.021 985.824,890.354 985.5,883.5 Z"/></g>
<g><path style="opacity:1" fill="#aaa9aa" d="M 693.5,897.5 C 686.465,897.326 679.465,897.659 672.5,898.5C 676.203,896.945 680.203,896.278 684.5,896.5C 687.686,896.502 690.686,896.835 693.5,897.5 Z"/></g>
<g><path style="opacity:1" fill="#555656" d="M 496.5,898.5 C 495.725,903.797 495.392,909.13 495.5,914.5C 494.837,912.527 494.504,910.361 494.5,908C 494.328,904.523 494.994,901.356 496.5,898.5 Z"/></g>
<g><path style="opacity:1" fill="#878b8b" d="M 926.5,919.5 C 929.152,919.41 931.485,920.076 933.5,921.5C 930.848,921.59 928.515,920.924 926.5,919.5 Z"/></g>
<g><path style="opacity:1" fill="#cfcfcf" d="M 544.5,922.5 C 549.179,922.334 553.845,922.501 558.5,923C 560.744,923.05 562.411,923.883 563.5,925.5C 556.936,925.136 550.603,924.136 544.5,922.5 Z"/></g>
<g><path style="opacity:1" fill="#9b9b9c" d="M 840.5,916.5 C 841.468,918.607 841.802,920.941 841.5,923.5C 823.483,923.283 805.483,923.616 787.5,924.5C 789.631,923.686 791.964,923.186 794.5,923C 809.83,922.5 825.163,922.333 840.5,922.5C 840.5,920.5 840.5,918.5 840.5,916.5 Z"/></g>
<g><path style="opacity:1" fill="#c0c1c1" d="M 840.5,952.5 C 840.5,949.167 840.5,945.833 840.5,942.5C 826.151,942.167 811.818,942.501 797.5,943.5C 795.681,944.32 794.014,945.32 792.5,946.5C 792.179,944.952 791.179,944.285 789.5,944.5C 791.148,943.073 793.148,942.24 795.5,942C 810.83,941.5 826.163,941.333 841.5,941.5C 841.815,945.371 841.482,949.038 840.5,952.5 Z"/></g>
<g><path style="opacity:1" fill="#f8f8f8" d="M 840.5,952.5 C 839.583,962.081 834.583,968.414 825.5,971.5C 815.999,970.846 806.499,970.179 797,969.5C 796.275,970.059 795.442,970.392 794.5,970.5C 792.309,969.257 789.976,968.424 787.5,968C 786.324,966.326 784.99,964.826 783.5,963.5C 783.65,959.867 783.65,956.2 783.5,952.5C 784.325,951.614 785.325,951.281 786.5,951.5C 786.5,950.5 786.5,949.5 786.5,948.5C 788.858,948.747 790.858,948.081 792.5,946.5C 794.014,945.32 795.681,944.32 797.5,943.5C 811.818,942.501 826.151,942.167 840.5,942.5C 840.5,945.833 840.5,949.167 840.5,952.5 Z"/></g>
<g><path style="opacity:1" fill="#e9e9e9" d="M 789.5,944.5 C 791.179,944.285 792.179,944.952 792.5,946.5C 790.858,948.081 788.858,948.747 786.5,948.5C 786.5,949.5 786.5,950.5 786.5,951.5C 785.325,951.281 784.325,951.614 783.5,952.5C 783.65,956.2 783.65,959.867 783.5,963.5C 784.99,964.826 786.324,966.326 787.5,968C 789.976,968.424 792.309,969.257 794.5,970.5C 795.442,970.392 796.275,970.059 797,969.5C 806.499,970.179 815.999,970.846 825.5,971.5C 819.346,973.878 812.846,974.878 806,974.5C 796.55,975.823 788.55,973.156 782,966.5C 776.894,956.408 779.394,949.075 789.5,944.5 Z"/></g>
<g><path style="opacity:1" fill="#cbcbcb" d="M 921.5,971.5 C 932.815,972.294 944.148,972.627 955.5,972.5C 951.012,973.166 946.346,973.499 941.5,973.5C 934.596,973.692 927.93,973.025 921.5,971.5 Z"/></g>
<g><path style="opacity:1" fill="#4b4b4b" d="M 914.5,992.5 C 919.414,992.362 924.081,993.028 928.5,994.5C 923.586,994.638 918.919,993.972 914.5,992.5 Z"/></g>
</svg>
