<?xml version="1.0" encoding="UTF-8"?>
<!DOCTYPE svg PUBLIC "-//W3C//DTD SVG 1.1//EN" "http://www.w3.org/Graphics/SVG/1.1/DTD/svg11.dtd">
<svg xmlns="http://www.w3.org/2000/svg" version="1.1" width="1254px" height="1254px" style="shape-rendering:geometricPrecision; text-rendering:geometricPrecision; image-rendering:optimizeQuality; fill-rule:evenodd; clip-rule:evenodd" xmlns:xlink="http://www.w3.org/1999/xlink">
<g><path style="opacity:1" fill="#000000" d="M -0.5,-0.5 C 417.5,-0.5 835.5,-0.5 1253.5,-0.5C 1253.5,417.5 1253.5,835.5 1253.5,1253.5C 835.5,1253.5 417.5,1253.5 -0.5,1253.5C -0.5,835.5 -0.5,417.5 -0.5,-0.5 Z"/></g>
<g><path style="opacity:1" fill="#f3f3f4" d="M 585.5,751.5 C 577.009,736.85 569.342,721.85 562.5,706.5C 561.467,680.342 562.967,654.342 567,628.5C 571.747,591.529 563.08,558.196 541,528.5C 521.579,505.658 508.579,479.658 502,450.5C 500.124,442.275 499.29,433.942 499.5,425.5C 493.234,426.367 488.567,424.033 485.5,418.5C 471.933,461.02 468.1,504.353 474,548.5C 476.964,559.063 480.297,569.396 484,579.5C 476.296,572.127 468.296,565.127 460,558.5C 453.235,518.263 454.568,478.263 464,438.5C 466.864,425.377 470.197,412.377 474,399.5C 477.743,395.741 482.243,394.574 487.5,396C 489.959,398.446 492.292,400.946 494.5,403.5C 502.196,377.106 514.363,353.106 531,331.5C 536.323,324.389 542.323,323.723 549,329.5C 550.579,332.994 552.413,336.327 554.5,339.5C 566.752,318.164 581.085,298.331 597.5,280C 601.295,279.163 604.961,279.496 608.5,281C 611.269,284.372 613.102,288.205 614,292.5C 626.078,283.544 638.245,274.711 650.5,266C 653.377,265.275 656.043,265.775 658.5,267.5C 661.226,270.286 662.893,273.619 663.5,277.5C 680.035,267.135 696.702,256.968 713.5,247C 722.621,245.946 727.288,250.113 727.5,259.5C 755.165,248.094 778.332,230.761 797,207.5C 802.775,198.952 807.775,189.952 812,180.5C 823.794,175.574 829.46,179.574 829,192.5C 830.545,221.338 828.378,249.838 822.5,278C 827.01,276.724 831.677,276.391 836.5,277C 839.381,278.251 841.214,280.417 842,283.5C 842.653,292.255 841.986,300.922 840,309.5C 837.725,317.49 835.558,325.49 833.5,333.5C 837.077,333.205 840.243,334.205 843,336.5C 844.555,341.382 844.888,346.382 844,351.5C 840.722,366.501 835.555,380.835 828.5,394.5C 832.192,395.252 835.858,396.086 839.5,397C 841.941,399.653 842.941,402.82 842.5,406.5C 839.632,428.94 832.298,449.774 820.5,469C 832.394,469.283 836.56,475.116 833,486.5C 828.548,499.401 823.548,512.067 818,524.5C 802.018,550.816 780.518,571.316 753.5,586C 740.576,592.641 727.242,598.308 713.5,603C 686.198,609.321 660.198,618.988 635.5,632C 604.372,650.624 585.705,677.791 579.5,713.5C 580.636,726.317 582.636,738.983 585.5,751.5 Z"/></g>
<g><path style="opacity:1" fill="#8f898e" d="M 811.5,215.5 C 811.56,214.957 811.893,214.624 812.5,214.5C 813.812,219.318 813.812,223.985 812.5,228.5C 812.818,223.968 812.485,219.634 811.5,215.5 Z"/></g>
<g><path style="opacity:1" fill="#020202" d="M 811.5,215.5 C 812.485,219.634 812.818,223.968 812.5,228.5C 807.98,269.381 789.98,302.881 758.5,329C 730.385,348.674 704.218,370.841 680,395.5C 672.285,405.042 664.785,414.709 657.5,424.5C 656.833,416.833 656.167,409.167 655.5,401.5C 653.288,368.07 658.121,335.737 670,304.5C 672.745,298.675 675.745,293.008 679,287.5C 689.415,280.708 699.915,274.042 710.5,267.5C 711.389,270.279 712.556,272.945 714,275.5C 715.722,277.444 717.889,278.444 720.5,278.5C 757.743,267.222 788.076,246.222 811.5,215.5 Z"/></g>
<g><path style="opacity:1" fill="#020202" d="M 614.5,496.5 C 613.833,494.5 613.167,492.5 612.5,490.5C 611.859,478.984 610.025,467.651 607,456.5C 600.923,438.6 594.256,420.933 587,403.5C 579.42,382.031 577.087,360.031 580,337.5C 581.202,331.227 583.202,325.227 586,319.5C 590.31,313.689 594.81,308.023 599.5,302.5C 601.267,305.77 603.6,308.603 606.5,311C 609.227,311.818 611.894,311.652 614.5,310.5C 626.014,303.576 637.014,295.909 647.5,287.5C 648.761,293.093 652.094,296.759 657.5,298.5C 648.492,318.194 642.992,338.861 641,360.5C 640.569,378.668 640.735,396.835 641.5,415C 641.487,425.526 640.987,436.026 640,446.5C 639.261,450.385 637.927,454.052 636,457.5C 628.313,470.206 621.147,483.206 614.5,496.5 Z"/></g>
<g><path style="opacity:1" fill="#020202" d="M 805.5,293.5 C 811.217,298.04 817.55,298.707 824.5,295.5C 825.47,302.651 824.637,309.651 822,316.5C 818.821,324.854 815.654,333.187 812.5,341.5C 814.201,349.531 819.201,352.864 827.5,351.5C 826.659,358.528 824.159,364.861 820,370.5C 802.333,389.823 781.166,403.99 756.5,413C 731.833,420.667 707.167,428.333 682.5,436C 675.34,439.039 668.34,442.039 661.5,445C 676.209,422.609 693.542,402.276 713.5,384C 728.925,370.572 744.925,357.905 761.5,346C 778.147,332.355 792.314,316.521 804,298.5C 805.009,296.975 805.509,295.308 805.5,293.5 Z"/></g>
<g><path style="opacity:1" fill="#020101" d="M 595.5,475.5 C 597.046,491.124 597.713,506.79 597.5,522.5C 597.43,529.352 596.263,536.019 594,542.5C 588.742,555.272 584.076,568.272 580,581.5C 576.936,563.045 570.269,546.045 560,530.5C 544.297,511.772 531.63,491.106 522,468.5C 519.986,460.11 517.819,451.777 515.5,443.5C 514.767,431.848 514.434,420.181 514.5,408.5C 514.5,408.167 514.5,407.833 514.5,407.5C 516.054,403.433 516.72,399.1 516.5,394.5C 520.248,377.751 527.581,362.751 538.5,349.5C 539.5,348.167 540.5,348.167 541.5,349.5C 547.047,360.643 554.547,362.31 564,354.5C 564.362,369.394 566.362,384.061 570,398.5C 576.438,417.376 583.438,436.043 591,454.5C 593.231,461.356 594.731,468.356 595.5,475.5 Z"/></g>
<g><path style="opacity:1" fill="#595a58" d="M 516.5,394.5 C 516.72,399.1 516.054,403.433 514.5,407.5C 514.28,402.9 514.946,398.567 516.5,394.5 Z"/></g>
<g><path style="opacity:1" fill="#020202" d="M 806.5,401.5 C 807.239,401.369 807.906,401.536 808.5,402C 807.391,405.826 808.391,409.159 811.5,412C 816.036,413.379 820.703,413.879 825.5,413.5C 820.095,445.068 803.762,469.235 776.5,486C 765.2,492.483 753.534,498.15 741.5,503C 710.614,510.303 680.281,519.303 650.5,530C 634.002,537.522 618.836,547.022 605,558.5C 613.079,531.332 624.746,505.666 640,481.5C 646.947,473.221 655.114,466.387 664.5,461C 671.379,457.394 678.379,454.061 685.5,451C 712.547,442.488 739.547,433.821 766.5,425C 781.284,419.328 794.617,411.495 806.5,401.5 Z"/></g>
<g><path style="opacity:1" fill="#989998" d="M 655.5,401.5 C 656.167,409.167 656.833,416.833 657.5,424.5C 657.44,425.043 657.107,425.376 656.5,425.5C 655.502,417.528 655.169,409.528 655.5,401.5 Z"/></g>
<g><path style="opacity:1" fill="#81807f" d="M 514.5,408.5 C 514.434,420.181 514.767,431.848 515.5,443.5C 514.065,436.385 513.398,429.052 513.5,421.5C 513.501,416.987 513.834,412.653 514.5,408.5 Z"/></g>
<g><path style="opacity:1" fill="#020202" d="M 805.5,486.5 C 808.797,486.89 811.797,487.89 814.5,489.5C 808.538,507.761 799.705,524.427 788,539.5C 762.669,565.924 732.169,583.758 696.5,593C 657.512,600.407 624.012,617.907 596,645.5C 589.551,653.286 583.884,661.619 579,670.5C 580.17,644.981 584.504,619.981 592,595.5C 603.643,577.522 618.81,563.355 637.5,553C 646.634,548.098 655.967,543.764 665.5,540C 689.132,532.842 712.799,526.009 736.5,519.5C 739.152,519.59 741.485,518.924 743.5,517.5C 764.976,510.433 783.976,499.266 800.5,484C 802.193,484.464 803.86,485.297 805.5,486.5 Z"/></g>
<g><path style="opacity:1" fill="#888888" d="M 805.5,486.5 C 808.833,486.5 812.167,486.5 815.5,486.5C 815.737,487.791 815.404,488.791 814.5,489.5C 811.797,487.89 808.797,486.89 805.5,486.5 Z"/></g>
<g><path style="opacity:1" fill="#5b5b5a" d="M 612.5,490.5 C 613.167,492.5 613.833,494.5 614.5,496.5C 614.217,497.289 613.717,497.956 613,498.5C 612.503,495.854 612.336,493.187 612.5,490.5 Z"/></g>
<g><path style="opacity:1" fill="#2d2e2d" d="M 595.5,475.5 C 596.956,480.934 597.79,486.6 598,492.5C 598.825,502.675 598.658,512.675 597.5,522.5C 597.713,506.79 597.046,491.124 595.5,475.5 Z"/></g>
<g><path style="opacity:1" fill="#4e4e4f" d="M 743.5,517.5 C 741.485,518.924 739.152,519.59 736.5,519.5C 738.515,518.076 740.848,517.41 743.5,517.5 Z"/></g>
<g><path style="opacity:1" fill="#055c1a" d="M 562.5,706.5 C 569.342,721.85 577.009,736.85 585.5,751.5C 592.771,767.374 600.604,783.041 609,798.5C 616.757,808.72 625.924,810.22 636.5,803C 641.37,796.761 645.87,790.261 650,783.5C 676.465,731.212 706.465,681.212 740,633.5C 755.086,614.412 771.586,596.579 789.5,580C 804.155,567.697 820.155,557.363 837.5,549C 842.931,546.123 848.598,545.29 854.5,546.5C 806.389,593.76 766.556,647.094 735,706.5C 719.673,736.465 704.34,766.465 689,796.5C 681.099,813.816 670.599,829.316 657.5,843C 643.559,853.939 627.892,857.272 610.5,853C 598.197,848.762 588.364,841.262 581,830.5C 575.728,822.281 570.728,813.948 566,805.5C 542.921,751.207 516.254,698.873 486,648.5C 462.444,611.76 435.277,577.76 404.5,546.5C 407.106,545.348 409.773,545.182 412.5,546C 431.596,553.441 448.929,563.774 464.5,577C 484.83,595.324 502.997,615.491 519,637.5C 534.025,660.227 548.525,683.227 562.5,706.5 Z"/></g>
<g><path style="opacity:1" fill="#f4f4f4" d="M 456.5,847.5 C 467.045,845.855 474.545,849.855 479,859.5C 479.806,876.025 471.973,883.192 455.5,881C 444.262,874.278 441.762,865.112 448,853.5C 450.671,851.098 453.505,849.098 456.5,847.5 Z"/></g>
<g><path style="opacity:1" fill="#696d6b" d="M 404.5,852.5 C 412.676,851.179 421.009,851.179 429.5,852.5C 429.376,853.107 429.043,853.44 428.5,853.5C 420.684,852.508 412.684,852.174 404.5,852.5 Z"/></g>
<g><path style="opacity:1" fill="#f5f5f5" d="M 336.5,970.5 C 334.557,976.629 335.724,981.962 340,986.5C 341.087,984.068 341.587,984.402 341.5,987.5C 342.5,987.5 343.5,987.5 344.5,987.5C 344.5,986.167 344.5,984.833 344.5,983.5C 362.862,940.262 381.529,897.096 400.5,854C 401.745,853.209 403.078,852.709 404.5,852.5C 412.684,852.174 420.684,852.508 428.5,853.5C 404.7,908.892 380.7,964.225 356.5,1019.5C 348.521,1020.66 340.521,1020.83 332.5,1020C 330.04,1018.54 327.873,1016.71 326,1014.5C 303.274,961.354 279.94,908.354 256,855.5C 255.167,854.667 254.333,853.833 253.5,853C 261.5,852.333 269.5,852.333 277.5,853C 283.086,854.581 287.586,857.748 291,862.5C 306.918,898.025 322.085,934.025 336.5,970.5 Z"/></g>
<g><path style="opacity:1" fill="#c8c9c8" d="M 803.5,892.5 C 808.322,891.834 813.322,891.501 818.5,891.5C 825.411,891.276 832.078,891.942 838.5,893.5C 826.856,892.639 815.19,892.305 803.5,892.5 Z"/></g>
<g><path style="opacity:1" fill="#f5f4f5" d="M 597.5,904.5 C 597.823,911.022 597.49,917.355 596.5,923.5C 579.27,916.018 561.27,913.184 542.5,915C 527.746,918.35 524.746,926.017 533.5,938C 537.563,940.41 541.896,942.077 546.5,943C 558.629,945.063 570.629,947.73 582.5,951C 607.33,962.826 612.83,980.659 599,1004.5C 589.667,1013.58 578.5,1019.08 565.5,1021C 545.185,1024.02 525.852,1021.02 507.5,1012C 504.833,1010 503.5,1007.33 503.5,1004C 504.202,997.761 506.869,992.595 511.5,988.5C 519.46,992.376 527.793,995.042 536.5,996.5C 544.111,998.539 551.777,998.872 559.5,997.5C 565.998,997.21 571.998,995.377 577.5,992C 582.602,984.161 581.268,977.828 573.5,973C 563.977,969.797 554.31,967.297 544.5,965.5C 542.485,964.076 540.152,963.41 537.5,963.5C 524.92,961.464 514.753,955.464 507,945.5C 497.066,923.467 502.899,907.134 524.5,896.5C 529.165,895.943 533.498,894.61 537.5,892.5C 557.089,889.498 576.089,891.664 594.5,899C 596.16,900.488 597.16,902.321 597.5,904.5 Z"/></g>
<g><path style="opacity:1" fill="#f5f5f5" d="M 677.5,891.5 C 697.245,889.015 715.578,892.848 732.5,903C 737.5,906.667 741.833,911 745.5,916C 739.615,921.556 733.448,926.723 727,931.5C 713.516,916.998 697.016,912.164 677.5,917C 655.168,928.296 647.335,946.129 654,970.5C 662.401,990.789 677.567,999.289 699.5,996C 703.377,995.743 707.043,994.743 710.5,993C 714.871,990.484 719.204,987.984 723.5,985.5C 730.792,988.478 737.458,992.478 743.5,997.5C 729.031,1014.5 710.531,1022.5 688,1021.5C 651.865,1019.37 630.865,1000.37 625,964.5C 623.464,926.237 640.964,901.903 677.5,891.5 Z"/></g>
<g><path style="opacity:1" fill="#f5f5f5" d="M 803.5,892.5 C 815.19,892.305 826.856,892.639 838.5,893.5C 858.931,898.1 871.098,910.767 875,931.5C 875.5,960.831 875.667,990.165 875.5,1019.5C 868.825,1019.67 862.158,1019.5 855.5,1019C 854.333,1017.83 853.167,1016.67 852,1015.5C 851.667,1011.83 851.333,1008.17 851,1004.5C 839.525,1016.65 825.358,1022.31 808.5,1021.5C 793.169,1022.08 780.335,1016.75 770,1005.5C 765.624,999.539 763.124,992.873 762.5,985.5C 762.437,980.797 762.771,976.13 763.5,971.5C 768.586,957.921 778.253,949.421 792.5,946C 796.795,945.088 801.128,944.421 805.5,944C 820.163,943.5 834.83,943.333 849.5,943.5C 849.343,925.838 840.343,916.338 822.5,915C 815.111,914.199 807.777,914.533 800.5,916C 795.135,917.733 789.801,919.566 784.5,921.5C 778.245,918.247 773.245,913.58 769.5,907.5C 779.393,899.417 790.727,894.417 803.5,892.5 Z"/></g>
<g><path style="opacity:1" fill="#f5f5f5" d="M 995.5,903.5 C 995.824,910.354 995.491,917.021 994.5,923.5C 977.022,915.788 958.688,912.954 939.5,915C 931.849,916.323 927.182,920.657 925.5,928C 926.918,934.586 930.918,938.753 937.5,940.5C 939.515,941.924 941.848,942.59 944.5,942.5C 944.833,942.5 945.167,942.5 945.5,942.5C 947.515,943.924 949.848,944.59 952.5,944.5C 965.419,946.641 977.752,950.474 989.5,956C 997.532,960.574 1002.2,967.407 1003.5,976.5C 1003.47,982.189 1003.13,987.855 1002.5,993.5C 997.41,1007.08 987.744,1015.58 973.5,1019C 955.754,1022.57 938.087,1022.24 920.5,1018C 914.902,1016.2 909.569,1013.87 904.5,1011C 902.408,1009.15 901.408,1006.81 901.5,1004C 902.151,997.523 904.985,992.356 910,988.5C 925.504,996.801 942.004,999.967 959.5,998C 966.131,997.238 971.964,994.738 977,990.5C 981.451,981.225 978.618,975.058 968.5,972C 954.101,968.587 939.767,964.92 925.5,961C 899.802,949.906 893.635,932.073 907,907.5C 915.2,899.316 925.033,894.149 936.5,892C 955.006,889.88 973.006,891.88 990.5,898C 993.079,899.076 994.746,900.909 995.5,903.5 Z"/></g>
<g><path style="opacity:1" fill="#f8f8f8" d="M 448.5,895.5 C 457.167,895.5 465.833,895.5 474.5,895.5C 474.5,936.833 474.5,978.167 474.5,1019.5C 467.159,1019.67 459.826,1019.5 452.5,1019C 450.667,1018.5 449.5,1017.33 449,1015.5C 448.5,975.501 448.333,935.501 448.5,895.5 Z"/></g>
<g><path style="opacity:1" fill="#bab9ba" d="M 537.5,892.5 C 533.498,894.61 529.165,895.943 524.5,896.5C 528.502,894.39 532.835,893.057 537.5,892.5 Z"/></g>
<g><path style="opacity:1" fill="#383838" d="M 597.5,904.5 C 598.818,911.011 598.818,917.678 597.5,924.5C 596.893,924.376 596.56,924.043 596.5,923.5C 597.49,917.355 597.823,911.022 597.5,904.5 Z"/></g>
<g><path style="opacity:1" fill="#646463" d="M 995.5,903.5 C 996.819,910.344 996.819,917.344 995.5,924.5C 994.893,924.376 994.56,924.043 994.5,923.5C 995.491,917.021 995.824,910.354 995.5,903.5 Z"/></g>
<g><path style="opacity:1" fill="#919191" d="M 448.5,895.5 C 457.318,894.507 466.318,894.173 475.5,894.5C 475.832,936.337 475.499,978.003 474.5,1019.5C 474.5,978.167 474.5,936.833 474.5,895.5C 465.833,895.5 457.167,895.5 448.5,895.5 Z"/></g>
<g><path style="opacity:1" fill="#4b4c4b" d="M 937.5,940.5 C 940.152,940.41 942.485,941.076 944.5,942.5C 941.848,942.59 939.515,941.924 937.5,940.5 Z"/></g>
<g><path style="opacity:1" fill="#5f5f5f" d="M 945.5,942.5 C 948.152,942.41 950.485,943.076 952.5,944.5C 949.848,944.59 947.515,943.924 945.5,942.5 Z"/></g>
<g><path style="opacity:1" fill="#8f8f8f" d="M 537.5,963.5 C 540.152,963.41 542.485,964.076 544.5,965.5C 541.848,965.59 539.515,964.924 537.5,963.5 Z"/></g>
<g><path style="opacity:1" fill="#040404" d="M 808.5,963.5 C 822.167,963.5 835.833,963.5 849.5,963.5C 852.129,980.433 845.462,991.599 829.5,997C 817.822,1000.98 806.488,1000.32 795.5,995C 788.067,988.286 786.567,980.453 791,971.5C 792.558,969.641 794.391,968.141 796.5,967C 800.647,965.891 804.647,964.724 808.5,963.5 Z"/></g>
<g><path style="opacity:1" fill="#d7d6d6" d="M 336.5,970.5 C 338.616,975.41 340.782,980.41 343,985.5C 343.278,984.584 343.778,983.918 344.5,983.5C 344.5,984.833 344.5,986.167 344.5,987.5C 343.5,987.5 342.5,987.5 341.5,987.5C 341.587,984.402 341.087,984.068 340,986.5C 335.724,981.962 334.557,976.629 336.5,970.5 Z"/></g>
<g><path style="opacity:1" fill="#585758" d="M 763.5,971.5 C 762.771,976.13 762.437,980.797 762.5,985.5C 761.839,983.866 761.506,982.033 761.5,980C 761.36,976.85 762.027,974.017 763.5,971.5 Z"/></g>
<g><path style="opacity:1" fill="#adaeab" d="M 1003.5,976.5 C 1004.16,978.473 1004.5,980.639 1004.5,983C 1004.62,986.782 1003.95,990.282 1002.5,993.5C 1003.13,987.855 1003.47,982.189 1003.5,976.5 Z"/></g>
<g><path style="opacity:1" fill="#555654" d="M 536.5,996.5 C 544.15,997.143 551.817,997.477 559.5,997.5C 551.777,998.872 544.111,998.539 536.5,996.5 Z"/></g>
</svg>
